<svg xmlns="http://www.w3.org/2000/svg" viewBox="0 0 960 654" role="img" aria-labelledby="title desc">
  <title id="title">Diggr title card</title>
  <desc id="desc">A Diggr title screen with the game logo, left-side menu buttons, and a mine preview panel on the right.</desc>
  <defs>
    <linearGradient id="button-fill" x1="0%" x2="0%" y1="0%" y2="100%">
      <stop offset="0%" stop-color="#314062" />
      <stop offset="100%" stop-color="#1d2945" />
    </linearGradient>
    <linearGradient id="panel-fill" x1="0%" x2="0%" y1="0%" y2="100%">
      <stop offset="0%" stop-color="#1c2942" />
      <stop offset="100%" stop-color="#152139" />
    </linearGradient>
    <linearGradient id="ground-fill" x1="0%" x2="0%" y1="0%" y2="100%">
      <stop offset="0%" stop-color="#b97839" />
      <stop offset="100%" stop-color="#b17235" />
    </linearGradient>
    <filter id="logo-shadow" x="-30%" y="-40%" width="160%" height="200%">
      <feDropShadow dx="0" dy="8" stdDeviation="0" flood-color="#2c160d" flood-opacity="1" />
      <feDropShadow dx="0" dy="14" stdDeviation="0" flood-color="#120907" flood-opacity="0.9" />
    </filter>
  </defs>

  <rect width="960" height="654" fill="#060a14" />
  <rect x="2" y="2" width="956" height="650" fill="none" stroke="#e9dfba" stroke-width="4" />

  <g fill="#1e2432" opacity="0.65">
    <rect x="0" y="571" width="360" height="10" />
    <rect x="0" y="611" width="360" height="43" />
    <rect x="594" y="611" width="366" height="43" />
  </g>

  <g fill="#11182a">
    <circle cx="48" cy="33" r="2" />
    <circle cx="180" cy="92" r="1.8" />
    <circle cx="228" cy="48" r="1.5" />
    <circle cx="596" cy="86" r="1.4" />
    <circle cx="657" cy="132" r="1.6" />
    <circle cx="806" cy="145" r="1.4" />
    <circle cx="874" cy="118" r="1.8" />
    <circle cx="136" cy="222" r="1.3" />
    <circle cx="281" cy="189" r="1.4" />
    <circle cx="426" cy="231" r="1.6" />
    <circle cx="907" cy="378" r="1.5" />
    <circle cx="827" cy="502" r="1.7" />
  </g>

  <g filter="url(#logo-shadow)">
    <rect x="237" y="36" width="482" height="88" fill="#26160f" />
    <text x="258" y="111" fill="#2e190f" font-family="monospace" font-size="92" font-weight="700" letter-spacing="5">DIGGR</text>
    <text x="249" y="102" fill="#f7e39e" font-family="monospace" font-size="92" font-weight="700" letter-spacing="5">DIGGR</text>
  </g>

  <g fill="#d8dced" font-family="monospace" font-size="22">
    <text x="54" y="182">Dig through a shifting mine, cash out at</text>
    <text x="54" y="220">the surface, and keep the rig alive long</text>
    <text x="88" y="258">enough to reach the rarest veins.</text>
  </g>

  <g font-family="monospace" font-size="25" letter-spacing="3">
    <g>
      <rect x="58" y="296" width="394" height="70" fill="url(#button-fill)" stroke="#efe1b5" stroke-width="4" />
      <text x="211" y="340" fill="#efe1b5">NEW GAME</text>
    </g>
    <g>
      <rect x="58" y="389" width="394" height="70" fill="url(#button-fill)" stroke="#efe1b5" stroke-width="4" />
      <text x="188" y="433" fill="#efe1b5">TESTING MODE</text>
    </g>
    <g>
      <rect x="58" y="482" width="394" height="70" fill="url(#button-fill)" stroke="#efe1b5" stroke-width="4" />
      <text x="205" y="526" fill="#efe1b5">LOAD GAME</text>
    </g>
    <g>
      <rect x="58" y="575" width="394" height="70" fill="url(#button-fill)" stroke="#efe1b5" stroke-width="4" />
      <text x="195" y="619" fill="#efe1b5">HOW TO PLAY</text>
    </g>
  </g>

  <g>
    <rect x="511" y="190" width="421" height="420" fill="#151821" stroke="#414347" stroke-width="3" />
    <rect x="532" y="211" width="379" height="288" fill="url(#panel-fill)" stroke="#495060" stroke-width="3" />
    <circle cx="721" cy="305" r="92" fill="#ffffff" fill-opacity="0.08" />

    <g>
      <rect x="685" y="283" width="50" height="17" fill="#35251b" />
      <rect x="695" y="257" width="32" height="28" fill="#35251b" />
      <rect x="707" y="265" width="7" height="9" fill="#e7dfbd" />
      <rect x="716" y="265" width="7" height="9" fill="#8797b2" />
      <rect x="676" y="300" width="68" height="31" fill="#35251b" />
      <rect x="689" y="309" width="50" height="20" fill="#808ea2" />
      <rect x="680" y="329" width="12" height="17" fill="#efe1b5" />
      <rect x="697" y="329" width="10" height="17" fill="#f6de8c" />
      <rect x="713" y="329" width="10" height="17" fill="#efe1b5" />
      <rect x="729" y="329" width="9" height="17" fill="#f6de8c" />
      <rect x="696" y="349" width="14" height="31" fill="#ff7a38" />
      <rect x="724" y="349" width="14" height="31" fill="#ff7a38" />
    </g>

    <g>
      <rect x="825" y="286" width="49" height="55" fill="#51230c" />
      <rect x="830" y="291" width="39" height="45" fill="#ff6f2f" />
      <rect x="840" y="300" width="5" height="5" fill="#ffe08a" />
      <rect x="859" y="312" width="6" height="4" fill="#ff914c" />
      <rect x="835" y="322" width="26" height="8" fill="#ff9b42" />
      <rect x="841" y="339" width="26" height="9" fill="#d49322" />
      <rect x="832" y="349" width="43" height="8" fill="#f6cf54" />
      <rect x="839" y="357" width="29" height="7" fill="#ffe690" />
      <rect x="847" y="364" width="8" height="18" fill="#ece4ce" />
      <rect x="858" y="364" width="8" height="18" fill="#efe1b5" />
      <rect x="846" y="382" width="5" height="17" fill="#6a3c24" />
      <rect x="861" y="382" width="5" height="17" fill="#6a3c24" />
    </g>

    <g>
      <rect x="582" y="427" width="34" height="11" fill="#f4d34f" />
      <rect x="590" y="419" width="18" height="9" fill="#f6df7e" />
      <rect x="592" y="410" width="5" height="11" fill="#efe1b5" />
      <rect x="603" y="410" width="5" height="11" fill="#efe1b5" />
    </g>
    <g>
      <rect x="654" y="427" width="34" height="11" fill="#58cfa6" />
      <rect x="661" y="419" width="20" height="9" fill="#79dfc0" />
      <rect x="662" y="410" width="14" height="5" fill="#efe1b5" />
    </g>
    <g>
      <rect x="748" y="427" width="36" height="11" fill="#8f61d9" />
      <rect x="756" y="419" width="19" height="9" fill="#aa80ee" />
      <rect x="764" y="410" width="4" height="15" fill="#efe1b5" />
      <rect x="758" y="410" width="4" height="15" fill="#efe1b5" />
    </g>

    <rect x="532" y="437" width="379" height="20" fill="#97d856" />
    <rect x="532" y="457" width="379" height="163" fill="url(#ground-fill)" />

    <g>
      <rect x="643" y="507" width="40" height="40" fill="#2e180d" />
      <rect x="649" y="513" width="28" height="28" fill="#7b4b24" />
      <rect x="653" y="516" width="6" height="20" fill="#b8c7db" />
      <rect x="667" y="516" width="6" height="20" fill="#a5d7ff" />
      <rect x="661" y="522" width="4" height="13" fill="#efe1b5" />
    </g>
    <g>
      <rect x="703" y="507" width="40" height="40" fill="#2e180d" />
      <rect x="709" y="513" width="28" height="28" fill="#7b4b24" />
      <rect x="713" y="520" width="7" height="7" fill="#f4d34f" />
      <rect x="722" y="517" width="7" height="7" fill="#e7ba3c" />
      <rect x="713" y="529" width="7" height="7" fill="#d9ad29" />
      <rect x="723" y="529" width="7" height="7" fill="#f6df7e" />
    </g>
    <g>
      <rect x="763" y="507" width="40" height="40" fill="#2e180d" />
      <rect x="769" y="513" width="28" height="28" fill="#7b4b24" />
      <rect x="774" y="518" width="5" height="17" fill="#90d8ff" />
      <rect x="781" y="521" width="5" height="14" fill="#68bff2" />
      <rect x="788" y="516" width="5" height="18" fill="#a5e5ff" />
    </g>

    <g fill="#d8dced" font-family="monospace" font-size="22">
      <text x="551" y="545">Drill deeper. Surface smarter.</text>
      <text x="618" y="574">Survive the shift.</text>
    </g>
  </g>

  <text x="396" y="608" fill="#aab4df" font-family="monospace" font-size="24">By Pwner Studios</text>
</svg>
